<svg width="39" height="49" viewBox="0 0 39 49" fill="none" xmlns="http://www.w3.org/2000/svg">
<path d="M0.963867 5.15482V43.8452C0.963867 46.4112 3.05187 48.4996 5.61826 48.4996H33.409C35.9758 48.4996 38.0638 46.4112 38.0638 43.8448V5.15439C38.0634 2.58843 35.9754 0.5 33.409 0.5H5.61826C3.05187 0.5 0.963867 2.58843 0.963867 5.15482V5.15482ZM5.61826 1.69989H18.8633V4.37472C18.8633 4.70619 19.132 4.97489 19.4634 4.97489C19.7949 4.97489 20.0636 4.70661 20.0636 4.37472L20.0632 1.69989H33.4078C35.3125 1.69989 36.8623 3.24972 36.8623 5.15439V43.8448C36.8627 45.7499 35.3129 47.2997 33.4083 47.2997H20.0625V44.6249C20.0625 44.2934 19.7939 44.0247 19.4624 44.0247C19.1309 44.0247 18.8622 44.293 18.8622 44.6249L18.8626 47.2997H5.61762C3.71294 47.2997 2.16312 45.7499 2.16312 43.8452V5.15482C2.16312 3.24972 3.71251 1.69989 5.61762 1.69989H5.61826Z" fill="black"/>
<path d="M19.4644 12.1667C19.7959 12.1667 20.0646 11.8984 20.0646 11.5665V8.66658C20.0646 8.3351 19.7959 8.06641 19.4644 8.06641C19.133 8.06641 18.8643 8.33468 18.8643 8.66658V11.5665C18.8643 11.8984 19.133 12.1667 19.4644 12.1667Z" fill="black"/>
<path d="M19.4644 19.3581C19.7959 19.3581 20.0646 19.0898 20.0646 18.7579V15.858C20.0646 15.5265 19.7959 15.2578 19.4644 15.2578C19.133 15.2578 18.8643 15.5261 18.8643 15.858V18.7579C18.8643 19.0898 19.133 19.3581 19.4644 19.3581Z" fill="black"/>
<path d="M19.4644 26.5499C19.7959 26.5499 20.0646 26.2817 20.0646 25.9498V23.0494C20.0646 22.7179 19.7959 22.4492 19.4644 22.4492C19.133 22.4492 18.8643 22.7175 18.8643 23.0494V25.9498C18.8643 26.2812 19.133 26.5499 19.4644 26.5499Z" fill="black"/>
<path d="M19.4644 33.7409C19.7959 33.7409 20.0646 33.4726 20.0646 33.1407V30.2408C20.0646 29.9093 19.7959 29.6406 19.4644 29.6406C19.133 29.6406 18.8643 29.9089 18.8643 30.2408V33.1407C18.8643 33.4726 19.133 33.7409 19.4644 33.7409Z" fill="black"/>
<path d="M19.4644 40.9323C19.7959 40.9323 20.0646 40.664 20.0646 40.3321V37.4322C20.0646 37.1007 19.7959 36.832 19.4644 36.832C19.133 36.832 18.8643 37.1003 18.8643 37.4322V40.3321C18.8643 40.664 19.133 40.9323 19.4644 40.9323Z" fill="black"/>
<path d="M7.92953 11.2555H13.097C14.6497 11.2555 15.9129 9.99244 15.9129 8.43972C15.9129 6.88658 14.6497 5.62305 13.097 5.62305H7.92953C6.37639 5.62305 5.11328 6.88615 5.11328 8.43972C5.11328 9.99244 6.37682 11.2555 7.92953 11.2555ZM14.7134 8.43972C14.7134 9.33077 13.9885 10.0557 13.0975 10.0557H11.1136V6.82294H13.0975C13.9885 6.82294 14.7134 7.54824 14.7134 8.43972ZM7.92953 6.82294H9.91339V10.0557H7.92953C7.03849 10.0557 6.31317 9.33077 6.31317 8.43972C6.31317 7.54826 7.03848 6.82294 7.92953 6.82294Z" fill="black"/>
<path d="M7.92953 21.9294H13.097C14.6497 21.9294 15.9129 20.6663 15.9129 19.1136C15.9129 17.5604 14.6497 16.2969 13.097 16.2969H7.92953C6.37639 16.2969 5.11328 17.56 5.11328 19.1136C5.11328 20.6663 6.37682 21.9294 7.92953 21.9294ZM14.7134 19.1136C14.7134 20.0046 13.9885 20.7295 13.0975 20.7295H11.1136L11.1132 17.4968H13.097C13.9885 17.4968 14.7134 18.2221 14.7134 19.1136H14.7134ZM7.92953 17.4968H9.91339V20.7295H7.92953C7.03849 20.7295 6.31317 20.0046 6.31317 19.1136C6.31317 18.2221 7.03848 17.4968 7.92953 17.4968Z" fill="black"/>
<path d="M7.92953 32.6004H13.097C14.6497 32.6004 15.9129 31.3373 15.9129 29.7846C15.9129 28.2319 14.6497 26.9688 13.097 26.9688H7.92953C6.37639 26.9688 5.11328 28.2319 5.11328 29.7846C5.11328 31.3373 6.37682 32.6004 7.92953 32.6004ZM14.7134 29.7846C14.7134 30.6756 13.9885 31.4005 13.0975 31.4005H11.1136V28.1686H13.0975C13.9885 28.1686 14.7134 28.8931 14.7134 29.7846ZM7.92953 28.1686H9.91339V31.4005H7.92953C7.03849 31.4005 6.31317 30.6756 6.31317 29.7846C6.31317 28.8931 7.03848 28.1686 7.92953 28.1686Z" fill="black"/>
<path d="M7.92953 43.2762H13.097C14.6497 43.2762 15.9129 42.0131 15.9129 40.4604C15.9129 38.9076 14.6497 37.6445 13.097 37.6445H7.92953C6.37639 37.6445 5.11328 38.9076 5.11328 40.4604C5.11328 42.0131 6.37682 43.2762 7.92953 43.2762ZM14.7134 40.4604C14.7134 41.3514 13.9885 42.0763 13.0975 42.0763H11.1136V38.8444H13.0975C13.9885 38.8444 14.7134 39.5689 14.7134 40.4604ZM7.92953 38.8444H9.91339V42.0763H7.92953C7.03849 42.0763 6.31317 41.3514 6.31317 40.4604C6.31317 39.5689 7.03848 38.8444 7.92953 38.8444Z" fill="black"/>
<path d="M25.8803 11.2555H31.0478C32.6009 11.2555 33.864 9.99244 33.864 8.43972C33.864 6.88658 32.6009 5.62305 31.0478 5.62305H25.8803C24.3276 5.62305 23.0645 6.88615 23.0645 8.43972C23.064 9.99244 24.3276 11.2555 25.8803 11.2555ZM32.6641 8.43972C32.6641 9.33077 31.9388 10.0557 31.0478 10.0557H29.0639V6.82294H31.0478C31.9388 6.82294 32.6641 7.54824 32.6641 8.43972ZM25.8803 6.82294H27.8641V10.0557H25.8803C24.9892 10.0557 24.2643 9.33077 24.2643 8.43972C24.2639 7.54826 24.9888 6.82294 25.8803 6.82294Z" fill="black"/>
<path d="M25.8803 21.9294H31.0478C32.6009 21.9294 33.864 20.6663 33.864 19.1136C33.864 17.5604 32.6009 16.2969 31.0478 16.2969H25.8803C24.3276 16.2969 23.0645 17.56 23.0645 19.1136C23.064 20.6663 24.3276 21.9294 25.8803 21.9294ZM32.6641 19.1136C32.6641 20.0046 31.9388 20.7295 31.0478 20.7295H29.0639V17.4968H31.0478C31.9388 17.4968 32.6641 18.2221 32.6641 19.1136ZM25.8803 17.4968H27.8641V20.7295H25.8803C24.9892 20.7295 24.2643 20.0046 24.2643 19.1136C24.2639 18.2221 24.9888 17.4968 25.8803 17.4968Z" fill="black"/>
<path d="M25.8803 32.6004H31.0478C32.6009 32.6004 33.864 31.3373 33.864 29.7846C33.864 28.2319 32.6009 26.9688 31.0478 26.9688H25.8803C24.3276 26.9688 23.0645 28.2319 23.0645 29.7846C23.064 31.3373 24.3276 32.6004 25.8803 32.6004ZM32.6641 29.7846C32.6641 30.6756 31.9388 31.4005 31.0478 31.4005H29.0639V28.1686H31.0478C31.9388 28.1686 32.6641 28.8931 32.6641 29.7846ZM25.8803 28.1686H27.8641V31.4005H25.8803C24.9892 31.4005 24.2643 30.6756 24.2643 29.7846C24.2639 28.8931 24.9888 28.1686 25.8803 28.1686Z" fill="black"/>
<path d="M25.8803 43.2762H31.0478C32.6009 43.2762 33.864 42.0131 33.864 40.4604C33.864 38.9076 32.6009 37.6445 31.0478 37.6445H25.8803C24.3276 37.6445 23.0645 38.9076 23.0645 40.4604C23.064 42.0131 24.3276 43.2762 25.8803 43.2762ZM32.6641 40.4604C32.6641 41.3514 31.9388 42.0763 31.0478 42.0763H29.0639V38.8444H31.0478C31.9388 38.8444 32.6641 39.5689 32.6641 40.4604ZM25.8803 38.8444H27.8641V42.0763H25.8803C24.9892 42.0763 24.2643 41.3514 24.2643 40.4604C24.2639 39.5689 24.9888 38.8444 25.8803 38.8444Z" fill="black"/>
</svg>
