<svg width="39" height="51" viewBox="0 0 39 51" fill="none" xmlns="http://www.w3.org/2000/svg">
<path d="M1.93544 45.3758H4.27337C4.33317 47.9307 6.49131 50.0106 9.06925 50.0106H30.2306C32.8684 50.0106 34.9662 47.9307 35.0265 45.3758H36.945C38.0841 45.3758 38.9831 44.4846 38.9831 43.3556V30.8771C38.9831 28.5597 37.2448 26.658 34.9666 26.3612V19.2308C34.9666 18.0425 34.5468 16.9134 33.8275 16.0223C33.7677 15.963 33.6477 15.9033 33.5879 15.8441C33.7677 15.0122 33.8275 14.1803 33.8275 13.2892V11.4472C33.8275 10.6746 33.5277 9.90238 33.0481 9.36727H33.5875C35.8054 9.36727 37.604 7.58453 37.604 5.38606V4.96991C37.604 2.77143 35.8054 0.988696 33.5875 0.988696L5.35241 0.988281C3.13447 0.988281 1.33595 2.77102 1.33595 4.96949V5.38564C1.33595 7.58412 3.13447 9.36686 5.35241 9.36686H6.25145C5.53221 10.0798 5.11234 11.0306 5.11234 12.1004V13.2888C5.11234 14.2396 5.23235 15.1307 5.41216 16.0815C4.69293 16.9727 4.27306 18.1018 4.27306 19.2901V26.4205C1.87539 26.7177 0.0166016 28.7379 0.0166016 31.1743V43.5933C0.0170197 44.5441 0.856269 45.376 1.93512 45.376L1.93544 45.3758ZM33.8273 45.2572C33.8273 47.2181 32.2086 48.8227 30.2303 48.8227L9.06893 48.8223C7.09067 48.8223 5.47189 47.2178 5.47189 45.2568L5.47231 44.7818V44.4254H33.8872L33.8868 44.7818V45.2572H33.8273ZM37.8438 30.8179V43.2963C37.8438 43.7718 37.4841 44.1282 37.0045 44.1282H35.086L35.0864 27.4903C36.6449 27.7875 37.8438 29.1541 37.8438 30.8178L37.8438 30.8179ZM32.6883 11.3872V13.2292C32.6883 16.5566 31.4292 19.5874 29.3314 21.9049V9.30758H30.5905C31.7292 9.30758 32.6884 10.1987 32.6884 11.3871L32.6883 11.3872ZM28.1324 8.11938H11.0475V2.29621C11.0475 2.23694 11.0475 2.11798 10.9877 2.05871H28.1925C28.1327 2.11798 28.1327 2.23694 28.1327 2.29621L28.1324 8.11938ZM28.1324 9.30769V23.0934C25.7945 25.1136 22.7971 26.3019 19.4999 26.3019C16.263 26.3019 13.3254 25.1728 11.0473 23.2715V9.30758L28.1324 9.30769ZM11.0475 29.392L17.2818 31.0558L11.0475 32.7196V29.392ZM10.4483 39.0773C10.9279 39.0773 11.2875 39.4338 11.2875 39.9092C11.2875 40.3846 10.9279 40.7411 10.4483 40.7411C9.96866 40.7411 9.60904 40.3846 9.60904 39.9092C9.54883 39.4338 9.96866 39.0773 10.4483 39.0773ZM11.0475 37.7108V34.2643L17.2822 35.9878L11.0475 37.7108ZM12.726 33.4916L19.56 31.6497L26.394 33.4916L19.56 35.3336L12.726 33.4916ZM28.1324 32.7195L21.8981 31.0557L28.1324 29.3919V32.7195ZM28.1324 34.2643V37.7107L21.8379 35.9877L28.1324 34.2643ZM28.7317 39.0773C29.2113 39.0773 29.5709 39.4338 29.5709 39.9092C29.5709 40.3846 29.2113 40.7411 28.7317 40.7411C28.252 40.7411 27.8924 40.3846 27.8924 39.9092C27.8326 39.4338 28.252 39.0773 28.7317 39.0773ZM28.1324 28.2032L19.5602 30.4614L10.988 28.2032V24.7568C13.3857 26.4798 16.2634 27.4904 19.4406 27.4904C22.6776 27.4904 25.6749 26.421 28.0731 24.6383L28.0723 28.2034L28.1324 28.2032ZM36.4651 4.85076V5.26691C36.4651 6.81175 35.206 8.0597 33.6476 8.0597H29.3314V2.23654C29.3314 2.17727 29.3314 2.05831 29.2716 1.99903H33.6476C35.1463 2.05789 36.4651 3.30587 36.4651 4.85072L36.4651 4.85076ZM2.53501 5.26649V4.85035C2.53501 3.3055 3.79412 2.05755 5.35253 2.05755H9.84856C9.78877 2.11683 9.78877 2.23578 9.78877 2.29506V8.11822H5.35289C3.79405 8.11905 2.53495 6.8118 2.53495 5.26654L2.53501 5.26649ZM9.84856 9.30734V22.1423C7.69047 19.8249 6.31179 16.6756 6.31179 13.2884V12.1001C6.31179 10.5553 7.57089 9.36655 9.06957 9.36655H9.84859L9.84856 9.30734ZM9.84856 23.7467V37.9483C9.00933 38.1858 8.40972 38.9584 8.40972 39.9092C8.40972 41.0383 9.30876 41.9294 10.4478 41.9294C11.5869 41.9294 12.4859 41.0383 12.4859 39.9092C12.4859 39.4338 12.3061 39.0181 12.0063 38.6611L19.5595 36.5812L27.1127 38.6611C26.8129 39.0176 26.6331 39.4337 26.6331 39.9092C26.6331 41.0383 27.5321 41.9294 28.6712 41.9294C29.8103 41.9294 30.7093 41.0383 30.7093 39.9092C30.7093 39.0181 30.1097 38.2454 29.2705 37.9483L29.2717 23.6278C31.13 21.9048 32.5087 19.7059 33.2283 17.2103C33.588 17.8047 33.7678 18.5176 33.7678 19.2306V43.2961H5.47272V19.1711C5.47272 18.6364 5.59274 18.1018 5.83234 17.5667C6.55158 20.0035 7.99044 22.0829 9.8488 23.7467H9.84856ZM1.21607 31.0558C1.21607 29.273 2.53491 27.7875 4.27326 27.4903V44.1876H1.93533C1.57571 44.1876 1.21609 43.8904 1.21609 43.4747L1.21607 31.0558Z" fill="black"/>
<path d="M16.139 18.6702H18.479V20.9904C18.479 21.1688 18.5991 21.2879 18.779 21.2879H20.8793C21.0592 21.2879 21.1794 21.1688 21.1794 20.9904V18.6702H23.5194C23.6993 18.6702 23.8194 18.5511 23.8194 18.3727V16.2903C23.8194 16.1118 23.6993 15.9927 23.5194 15.9927H21.1794V13.6725C21.1794 13.4941 21.0592 13.375 20.8793 13.375H18.779C18.5991 13.375 18.479 13.4941 18.479 13.6725V15.9927H16.139C15.959 15.9927 15.8389 16.1118 15.8389 16.2903V18.3727C15.8393 18.4918 15.959 18.6702 16.139 18.6702Z" fill="black"/>
</svg>
