<svg width="49" height="49" viewBox="0 0 49 49" fill="none" xmlns="http://www.w3.org/2000/svg">
<path d="M46.5337 0.5H26.4027C25.3183 0.5 24.4364 1.38226 24.4364 2.46661V7.09132C24.4364 8.03552 25.1052 8.82489 25.9933 9.01357C25.9962 9.35802 25.9995 9.74725 25.9995 9.81464C25.9995 18.2626 22.1369 23.44 18.3092 24.8232C15.8822 25.7 13.3593 26.2018 10.8104 26.314C1.37351 26.7304 1.26423 37.1129 1.26423 37.2179V40.4234L1.10017 40.4238C0.768693 40.4238 0.5 40.6925 0.5 41.024V47.9C0.5 48.2315 0.768275 48.5002 1.10017 48.5002H21.1744C25.5895 48.5002 28.1161 46.598 29.4579 45.0022C29.7211 44.6891 29.9496 44.3765 30.1476 44.0735L30.148 47.9001C30.148 48.2316 30.4163 48.5002 30.7482 48.5002H47.8996C48.2311 48.5002 48.4998 48.2316 48.4998 47.9001V41.0241C48.4998 40.6926 48.2315 40.4239 47.8996 40.4239H47.7833L47.7824 37.2222C47.8046 33.4834 47.3836 29.2743 47.0262 26.4029C46.5574 22.6378 46.3197 18.8074 46.3172 15.0736L46.8705 9.02505C47.7942 8.86433 48.4998 8.0616 48.4998 7.0923V2.46758C48.4998 1.38319 47.618 0.500976 46.5335 0.500976L46.5337 0.5ZM21.1752 47.3H17.2627V44.071C17.2627 43.7396 16.9945 43.4709 16.6626 43.4709C16.3311 43.4709 16.0624 43.7396 16.0624 44.071L16.0628 47.3H13.4257V44.071C13.4257 43.7396 13.1574 43.4709 12.8255 43.4709C12.4941 43.4709 12.2254 43.7396 12.2254 44.071V47.3H9.5874V44.071C9.5874 43.7396 9.31912 43.4709 8.98723 43.4709C8.65575 43.4709 8.38705 43.7396 8.38705 44.071L8.38747 47.3H5.75037V44.071C5.75037 43.7396 5.48209 43.4709 5.15019 43.4709C4.81872 43.4709 4.55002 43.7396 4.55002 44.071L4.55044 47.3H1.70023V41.6239H30.0331C29.5476 43.0062 27.5273 47.3 21.1754 47.3H21.1752ZM47.3009 47.3H44.4135V44.071C44.4135 43.7396 44.1452 43.4709 43.8133 43.4709C43.4818 43.4709 43.2131 43.7396 43.2131 44.071V47.3H40.0256V44.071C40.0256 43.7396 39.7574 43.4709 39.4255 43.4709C39.094 43.4709 38.8253 43.7396 38.8253 44.071L38.8257 47.3H35.6382V44.071C35.6382 43.7396 35.3699 43.4709 35.038 43.4709C34.7066 43.4709 34.4379 43.7396 34.4379 44.071L34.4383 47.3H31.3491L31.3487 41.6239H47.1844L47.3004 41.6235L47.3009 47.3ZM46.5835 37.2185L46.5848 40.4236H2.46442V37.2181C2.46442 37.1946 2.47656 34.8408 3.53418 32.4577C4.92286 29.3301 7.38843 27.6664 10.863 27.5129C13.5294 27.3952 16.1678 26.8713 18.7057 25.9555L20.8946 29.9064C21.0043 30.104 21.2094 30.2153 21.4203 30.2153C21.5187 30.2153 21.6183 30.1914 21.7103 30.14C22.0004 29.9793 22.1054 29.6143 21.9447 29.3243L19.8111 25.4734C20.4493 25.1466 21.0424 24.749 21.5936 24.2953L24.8544 27.6414C24.9716 27.7619 25.1281 27.8226 25.2838 27.8226C25.4349 27.8226 25.586 27.7661 25.7027 27.6522C25.9401 27.4208 25.9447 27.0412 25.7132 26.8039L22.4788 23.4846C23.0396 22.9108 23.5481 22.2722 24.0051 21.5824L28.0511 24.1246C28.1507 24.1869 28.2607 24.2166 28.37 24.2166C28.5696 24.2166 28.7651 24.1175 28.8785 23.9358C29.0547 23.655 28.9706 23.285 28.6897 23.1084L24.628 20.5562C24.9553 19.967 25.2453 19.3458 25.5081 18.7072L29.7604 20.1916C29.8261 20.2146 29.8927 20.2251 29.9584 20.2251C30.2061 20.2251 30.4384 20.0703 30.5251 19.8225C30.6339 19.5094 30.469 19.1675 30.1563 19.0583L25.9313 17.5829C26.1594 16.9179 26.3552 16.2377 26.5206 15.5468L31.1134 16.0323C31.1352 16.0343 31.1561 16.0356 31.1775 16.0356C31.4805 16.0356 31.7412 15.8067 31.7735 15.4986C31.8086 15.1693 31.5696 14.8738 31.2403 14.839L26.7721 14.3678C27.0546 12.8485 27.1998 11.3059 27.1998 9.81549C27.1998 9.75062 27.1969 9.39195 27.194 9.05838L45.6632 9.05796L45.1204 15.0178C45.1204 18.8561 45.3611 22.7358 45.8365 26.5506C46.1893 29.3875 46.6058 33.5404 46.5836 37.2189L46.5835 37.2185ZM47.3009 7.091C47.3009 7.51371 46.9568 7.85774 46.5346 7.85774H26.4035C25.9812 7.85774 25.6372 7.51371 25.6372 7.091V2.46629C25.6372 2.04357 25.9812 1.69955 26.4035 1.69955H46.5346C46.9568 1.69955 47.3009 2.04357 47.3009 2.46629V7.091Z" fill="black"/>
</svg>
