<svg width="15" height="20" viewBox="0 0 15 20" fill="none" xmlns="http://www.w3.org/2000/svg">
<path d="M4 3V13.5C4 13.9641 4.18437 14.4092 4.51256 14.7374C4.84075 15.0656 5.28587 15.25 5.75 15.25H12.75C13.2141 15.25 13.6592 15.0656 13.9874 14.7374C14.3156 14.4092 14.5 13.9641 14.5 13.5V5.83675C14.5 5.60361 14.4534 5.37284 14.3629 5.15796C14.2724 4.94309 14.14 4.74846 13.9733 4.5855L11.0726 1.74875C10.7457 1.42908 10.3066 1.25006 9.84938 1.25H5.75C5.28587 1.25 4.84075 1.43437 4.51256 1.76256C4.18437 2.09075 4 2.53587 4 3V3Z" stroke="black" stroke-opacity="0.2" stroke-width="0.875" stroke-linecap="round" stroke-linejoin="round"/>
<path d="M11 15.25V17C11 17.4641 10.8156 17.9092 10.4874 18.2374C10.1592 18.5656 9.71413 18.75 9.25 18.75H2.25C1.78587 18.75 1.34075 18.5656 1.01256 18.2374C0.684374 17.9092 0.5 17.4641 0.5 17V7.375C0.5 6.91087 0.684374 6.46575 1.01256 6.13756C1.34075 5.80937 1.78587 5.625 2.25 5.625H4" stroke="black" stroke-opacity="0.2" stroke-width="0.875" stroke-linecap="round" stroke-linejoin="round"/>
</svg>
