<svg width="25" height="42" viewBox="0 0 25 42" fill="none" xmlns="http://www.w3.org/2000/svg">
<path d="M0.5 29.343C0.927334 34.344 4.86862 37.893 10.8686 38.352V42H13.8802V38.352C20.4346 37.815 24.5 34.038 24.5 28.452C24.5 23.682 21.7656 20.922 15.9649 19.368L13.8802 18.807V7.401C17.1198 7.731 19.3056 9.543 19.8571 12.249H24.1015C23.6222 7.449 19.655 4.005 13.8802 3.624V0H10.8686V3.699C5.26997 4.389 1.42685 8.115 1.42685 13.167C1.42685 17.529 4.21607 20.616 9.1102 21.918L10.8715 22.404V34.497C7.5539 33.987 5.26997 32.097 4.71848 29.343H0.5ZM10.2911 17.835C7.27959 17.046 5.67132 15.36 5.67132 12.987C5.67132 10.155 7.70404 8.064 10.8686 7.503V17.988L10.2911 17.838V17.835ZM14.885 23.451C18.6011 24.42 20.2324 26.028 20.2324 28.758C20.2324 32.049 17.8474 34.242 13.8802 34.575V23.19L14.885 23.448V23.451Z" fill="black"/>
</svg>
