<svg width="25" height="36" viewBox="0 0 25 36" fill="none" xmlns="http://www.w3.org/2000/svg">
<path d="M0.5 22.26H3.689C4.7 30.969 10.451 36 19.52 36C21.386 36 23.021 35.796 24.497 35.445V31.545C23.045 31.902 21.362 32.055 19.52 32.055C13.22 32.055 9.155 28.461 8.195 22.263H20.246V19.479H7.991V16.671C7.991 16.341 7.991 16.014 8.015 15.684H20.249V12.903H8.354C9.518 7.20898 13.511 3.94798 19.523 3.94798C21.365 3.94798 23.048 4.09798 24.5 4.47898V0.581983C22.8722 0.178534 21.1999 -0.0170237 19.523 -1.67731e-05C10.739 -1.67732e-05 5.063 4.70698 3.791 12.9H0.5V15.684H3.53V19.479H0.5V22.263V22.26Z" fill="black"/>
</svg>
