<svg width="35" height="35" viewBox="0 0 35 35" fill="none" xmlns="http://www.w3.org/2000/svg">
<path d="M17.5002 0.486084C8.1046 0.486084 0.486328 8.10436 0.486328 17.5C0.486328 26.8956 8.1046 34.5139 17.5002 34.5139C26.8958 34.5139 34.5141 26.8956 34.5141 17.5C34.5141 8.10436 26.8958 0.486084 17.5002 0.486084ZM25.6768 13.3111C25.6881 13.4896 25.6881 13.6756 25.6881 13.8579C25.6881 19.433 21.4423 25.855 13.6835 25.855C11.2909 25.855 9.07302 25.16 7.20454 23.9637C7.54633 24.0017 7.87294 24.0169 8.22233 24.0169C10.1972 24.0169 12.0125 23.3485 13.4594 22.2168C11.6061 22.1788 10.049 20.9635 9.51736 19.2925C10.1668 19.3874 10.7516 19.3874 11.42 19.2166C10.4658 19.0227 9.60803 18.5044 8.99257 17.7498C8.37712 16.9952 8.04189 16.0508 8.04384 15.077V15.0238C8.6021 15.3391 9.25911 15.5327 9.94651 15.5593C9.36865 15.1742 8.89475 14.6525 8.56683 14.0403C8.2389 13.4282 8.06709 12.7446 8.06662 12.0502C8.06662 11.2641 8.2717 10.5463 8.64008 9.92347C9.69928 11.2274 11.021 12.2938 12.5193 13.0534C14.0177 13.8131 15.6591 14.2489 17.3369 14.3327C16.7407 11.4654 18.8826 9.14494 21.4575 9.14494C22.6727 9.14494 23.7665 9.65384 24.5374 10.4741C25.4907 10.2957 26.4021 9.93867 27.2148 9.46015C26.8996 10.4362 26.2388 11.2603 25.3615 11.7806C26.2122 11.6894 27.0325 11.454 27.7921 11.1236C27.2186 11.9667 26.5009 12.7148 25.6768 13.3111Z" fill="white"/>
</svg>
