<svg width="35" height="35" viewBox="0 0 35 35" fill="none" xmlns="http://www.w3.org/2000/svg">
<path fill-rule="evenodd" clip-rule="evenodd" d="M35 17.5C35 27.1644 27.1644 35 17.5 35C7.83563 35 0 27.1644 0 17.5C0 7.83563 7.83563 0 17.5 0C27.1644 0 35 7.83563 35 17.5ZM18.1271 12.9194C16.4252 13.6267 13.0229 15.0923 7.92167 17.3148C7.09333 17.6444 6.65875 17.9667 6.61938 18.2817C6.55229 18.8154 7.22021 19.0254 8.12729 19.3098C8.25125 19.3492 8.37958 19.3885 8.51083 19.4323C9.40479 19.7225 10.6065 20.0623 11.2306 20.0754C11.7979 20.0871 12.4308 19.8538 13.1294 19.3754C17.8952 16.1569 20.3554 14.5308 20.51 14.4958C20.6194 14.471 20.771 14.439 20.8731 14.5308C20.9752 14.6213 20.965 14.7933 20.9548 14.84C20.8877 15.1215 18.2715 17.5554 16.9152 18.8154C16.4923 19.2077 16.1933 19.4862 16.1321 19.5504C15.995 19.6919 15.855 19.8275 15.7208 19.9573C14.8896 20.7565 14.2683 21.3573 15.7558 22.3373C16.4704 22.8083 17.0421 23.1977 17.6123 23.5856C18.235 24.01 18.8563 24.4329 19.6613 24.9608C19.8654 25.095 20.0608 25.2335 20.2519 25.3692C20.9767 25.8869 21.6285 26.3506 22.4335 26.2777C22.9002 26.234 23.3844 25.795 23.6294 24.484C24.2083 21.3835 25.3488 14.6694 25.6127 11.9015C25.6288 11.6716 25.619 11.4408 25.5835 11.2131C25.5623 11.0293 25.4728 10.8601 25.3327 10.7392C25.1242 10.5685 24.8004 10.5321 24.6546 10.535C23.9969 10.5467 22.9877 10.8981 18.1271 12.9194Z" fill="white"/>
</svg>
