<svg width="33" height="33" viewBox="0 0 33 33" fill="none" xmlns="http://www.w3.org/2000/svg">
<path fill-rule="evenodd" clip-rule="evenodd" d="M9.88645 0.553281C11.5971 0.474531 12.1425 0.457031 16.5 0.457031C20.8575 0.457031 21.4029 0.47599 23.1121 0.553281C24.8212 0.630573 25.9879 0.903281 27.0087 1.29849C28.0777 1.70245 29.0475 2.33391 29.8496 3.15057C30.6662 3.9512 31.2962 4.91953 31.6987 5.98995C32.0954 7.01078 32.3667 8.17745 32.4454 9.8837C32.5242 11.5972 32.5417 12.1427 32.5417 16.4987C32.5417 20.8562 32.5227 21.4016 32.4454 23.1122C32.3681 24.8185 32.0954 25.9852 31.6987 27.006C31.2962 28.0765 30.6652 29.0465 29.8496 29.8483C29.0475 30.6649 28.0777 31.2949 27.0087 31.6974C25.9879 32.0941 24.8212 32.3654 23.115 32.4441C21.4029 32.5229 20.8575 32.5404 16.5 32.5404C12.1425 32.5404 11.5971 32.5214 9.88645 32.4441C8.1802 32.3668 7.01354 32.0941 5.9927 31.6974C4.92217 31.2949 3.95223 30.6639 3.15041 29.8483C2.3343 29.0472 1.70275 28.0777 1.29979 27.0074C0.904578 25.9866 0.633328 24.8199 0.554578 23.1137C0.475828 21.4002 0.458328 20.8547 0.458328 16.4987C0.458328 12.1412 0.477287 11.5958 0.554578 9.88661C0.63187 8.17745 0.904578 7.01078 1.29979 5.98995C1.70334 4.91965 2.33538 3.9502 3.15187 3.14911C3.95255 2.33318 4.92152 1.70164 5.99124 1.29849C7.01208 0.903281 8.17874 0.632031 9.88499 0.553281H9.88645ZM22.9823 3.44078C21.2906 3.36349 20.7831 3.34745 16.5 3.34745C12.2169 3.34745 11.7094 3.36349 10.0177 3.44078C8.45291 3.51224 7.60416 3.77328 7.03833 3.99349C6.2902 4.28516 5.75499 4.63078 5.19354 5.19224C4.66131 5.71002 4.25172 6.34036 3.99479 7.03703C3.77458 7.60286 3.51354 8.45161 3.44208 10.0164C3.36479 11.7081 3.34874 12.2156 3.34874 16.4987C3.34874 20.7818 3.36479 21.2893 3.44208 22.981C3.51354 24.5458 3.77458 25.3945 3.99479 25.9604C4.25145 26.656 4.66124 27.2874 5.19354 27.8052C5.71124 28.3374 6.3427 28.7472 7.03833 29.0039C7.60416 29.2241 8.45291 29.4852 10.0177 29.5566C11.7094 29.6339 12.2154 29.6499 16.5 29.6499C20.7846 29.6499 21.2906 29.6339 22.9823 29.5566C24.5471 29.4852 25.3958 29.2241 25.9617 29.0039C26.7098 28.7122 27.245 28.3666 27.8065 27.8052C28.3387 27.2874 28.7485 26.656 29.0052 25.9604C29.2254 25.3945 29.4865 24.5458 29.5579 22.981C29.6352 21.2893 29.6512 20.7818 29.6512 16.4987C29.6512 12.2156 29.6352 11.7081 29.5579 10.0164C29.4865 8.45161 29.2254 7.60286 29.0052 7.03703C28.7135 6.28891 28.3679 5.7537 27.8065 5.19224C27.2886 4.66005 26.6583 4.25046 25.9617 3.99349C25.3958 3.77328 24.5471 3.51224 22.9823 3.44078V3.44078ZM14.451 21.4439C15.5953 21.9202 16.8695 21.9845 18.0559 21.6258C19.2424 21.267 20.2674 20.5075 20.9561 19.477C21.6447 18.4464 21.9542 17.2087 21.8317 15.9753C21.7092 14.7419 21.1623 13.5893 20.2844 12.7143C19.7247 12.155 19.048 11.7268 18.303 11.4604C17.5579 11.194 16.7631 11.0961 15.9757 11.1738C15.1883 11.2514 14.4279 11.5027 13.7493 11.9095C13.0707 12.3163 12.4907 12.8685 12.0511 13.5264C11.6115 14.1843 11.3232 14.9314 11.207 15.7141C11.0908 16.4967 11.1496 17.2954 11.3791 18.0526C11.6086 18.8098 12.0032 19.5067 12.5344 20.0931C13.0656 20.6795 13.7202 21.1408 14.451 21.4439ZM10.6696 10.6683C11.4352 9.90262 12.3442 9.29526 13.3446 8.88089C14.345 8.46652 15.4172 8.25324 16.5 8.25324C17.5828 8.25324 18.655 8.46652 19.6554 8.88089C20.6558 9.29526 21.5647 9.90262 22.3304 10.6683C23.0961 11.4339 23.7034 12.3429 24.1178 13.3433C24.5322 14.3437 24.7454 15.4159 24.7454 16.4987C24.7454 17.5815 24.5322 18.6537 24.1178 19.6541C23.7034 20.6545 23.0961 21.5635 22.3304 22.3291C20.7841 23.8754 18.6868 24.7442 16.5 24.7442C14.3132 24.7442 12.2159 23.8754 10.6696 22.3291C9.12325 20.7828 8.25454 18.6855 8.25454 16.4987C8.25454 14.3119 9.12325 12.2146 10.6696 10.6683V10.6683ZM26.5742 9.4812C26.7639 9.30221 26.9158 9.08698 27.0209 8.84824C27.1259 8.6095 27.182 8.35211 27.1858 8.0913C27.1896 7.8305 27.141 7.57158 27.043 7.32988C26.9449 7.08818 26.7994 6.86861 26.6149 6.68417C26.4305 6.49973 26.2109 6.35418 25.9692 6.25612C25.7275 6.15806 25.4686 6.1095 25.2078 6.1133C24.947 6.1171 24.6896 6.17319 24.4509 6.27825C24.2121 6.38332 23.9969 6.53521 23.8179 6.72495C23.4698 7.09395 23.2792 7.58408 23.2866 8.0913C23.294 8.59852 23.4988 9.0829 23.8575 9.44159C24.2162 9.80029 24.7006 10.0051 25.2078 10.0125C25.715 10.0199 26.2052 9.82929 26.5742 9.4812V9.4812Z" fill="black"/>
</svg>
