<svg width="30" height="30" viewBox="0 0 30 30" fill="none" xmlns="http://www.w3.org/2000/svg">
<path d="M14.9964 10.4981C12.5175 10.4981 10.4945 12.5211 10.4945 15C10.4945 17.4789 12.5175 19.5019 14.9964 19.5019C17.4752 19.5019 19.4982 17.4789 19.4982 15C19.4982 12.5211 17.4752 10.4981 14.9964 10.4981ZM28.4985 15C28.4985 13.1357 28.5154 11.2884 28.4107 9.42748C28.306 7.26602 27.8129 5.34773 26.2324 3.76716C24.6485 2.18322 22.7336 1.69351 20.5722 1.58881C18.7079 1.48412 16.8606 1.501 14.9997 1.501C13.1355 1.501 11.2882 1.48412 9.42734 1.58881C7.26592 1.69351 5.34766 2.18659 3.76712 3.76716C2.1832 5.35111 1.69351 7.26602 1.58881 9.42748C1.48412 11.2917 1.501 13.1391 1.501 15C1.501 16.8609 1.48412 18.7116 1.58881 20.5725C1.69351 22.734 2.18658 24.6523 3.76712 26.2328C5.35103 27.8168 7.26592 28.3065 9.42734 28.4112C11.2916 28.5159 13.1389 28.499 14.9997 28.499C16.864 28.499 18.7113 28.5159 20.5722 28.4112C22.7336 28.3065 24.6518 27.8134 26.2324 26.2328C27.8163 24.6489 28.306 22.734 28.4107 20.5725C28.5188 18.7116 28.4985 16.8643 28.4985 15ZM14.9964 21.9268C11.1632 21.9268 8.06969 18.8332 8.06969 15C8.06969 11.1668 11.1632 8.07319 14.9964 8.07319C18.8295 8.07319 21.923 11.1668 21.923 15C21.923 18.8332 18.8295 21.9268 14.9964 21.9268ZM22.2067 9.40722C21.3118 9.40722 20.589 8.68448 20.589 7.7895C20.589 6.89452 21.3118 6.17179 22.2067 6.17179C23.1017 6.17179 23.8244 6.89452 23.8244 7.7895C23.8247 8.00202 23.783 8.2125 23.7018 8.40889C23.6206 8.60528 23.5015 8.78372 23.3512 8.934C23.2009 9.08427 23.0225 9.20342 22.8261 9.28462C22.6297 9.36583 22.4192 9.40749 22.2067 9.40722Z" fill="black"/>
</svg>
