<svg width="30" height="30" viewBox="0 0 30 30" fill="none" xmlns="http://www.w3.org/2000/svg">
<path d="M15.0003 0.416626C6.94694 0.416626 0.416992 6.94657 0.416992 15C0.416992 23.0533 6.94694 29.5833 15.0003 29.5833C23.0537 29.5833 29.5837 23.0533 29.5837 15C29.5837 6.94657 23.0537 0.416626 15.0003 0.416626ZM22.0088 11.4095C22.0186 11.5625 22.0186 11.722 22.0186 11.8782C22.0186 16.6569 18.3792 22.1614 11.7288 22.1614C9.67806 22.1614 7.77702 21.5657 6.17546 20.5403C6.46842 20.5729 6.74837 20.5859 7.04785 20.5859C8.74056 20.5859 10.2965 20.013 11.5368 19.0429C9.94824 19.0104 8.61361 17.9687 8.15788 16.5364C8.71452 16.6178 9.21582 16.6178 9.78874 16.4713C8.97079 16.3051 8.2356 15.8609 7.70806 15.2141C7.18053 14.5673 6.89319 13.7578 6.89486 12.9231V12.8776C7.37337 13.1477 7.93652 13.3138 8.52572 13.3365C8.03041 13.0065 7.62421 12.5592 7.34313 12.0346C7.06206 11.5099 6.91479 10.924 6.91439 10.3287C6.91439 9.65491 7.09017 9.03967 7.40592 8.50582C8.31381 9.62345 9.44671 10.5375 10.731 11.1886C12.0153 11.8398 13.4222 12.2133 14.8604 12.2851C14.3493 9.82743 16.1852 7.8385 18.3923 7.8385C19.4339 7.8385 20.3714 8.2747 21.0322 8.97782C21.8493 8.82483 22.6305 8.51884 23.3271 8.10868C23.057 8.94527 22.4906 9.65165 21.7386 10.0976C22.4678 10.0195 23.1709 9.81767 23.8219 9.53446C23.3304 10.2571 22.7152 10.8984 22.0088 11.4095Z" fill="black"/>
</svg>
