<svg width="33" height="33" viewBox="0 0 33 33" fill="none" xmlns="http://www.w3.org/2000/svg">
<path fill-rule="evenodd" clip-rule="evenodd" d="M9.88613 0.553281C11.5968 0.474531 12.1422 0.457031 16.4997 0.457031C20.8572 0.457031 21.4026 0.47599 23.1118 0.553281C24.8209 0.630573 25.9876 0.903281 27.0084 1.29849C28.0774 1.70245 29.0472 2.33391 29.8493 3.15057C30.6659 3.9512 31.2959 4.91953 31.6984 5.98995C32.0951 7.01078 32.3663 8.17745 32.4451 9.8837C32.5238 11.5972 32.5413 12.1427 32.5413 16.4987C32.5413 20.8562 32.5224 21.4016 32.4451 23.1122C32.3678 24.8185 32.0951 25.9852 31.6984 27.006C31.2959 28.0765 30.6649 29.0465 29.8493 29.8483C29.0472 30.6649 28.0774 31.2949 27.0084 31.6974C25.9876 32.0941 24.8209 32.3654 23.1147 32.4441C21.4026 32.5229 20.8572 32.5404 16.4997 32.5404C12.1422 32.5404 11.5968 32.5214 9.88613 32.4441C8.17988 32.3668 7.01322 32.0941 5.99238 31.6974C4.92185 31.2949 3.95191 30.6639 3.15009 29.8483C2.33398 29.0472 1.70243 28.0777 1.29947 27.0074C0.904258 25.9866 0.633008 24.8199 0.554258 23.1137C0.475508 21.4002 0.458008 20.8547 0.458008 16.4987C0.458008 12.1412 0.476966 11.5958 0.554258 9.88661C0.631549 8.17745 0.904258 7.01078 1.29947 5.98995C1.70302 4.91965 2.33506 3.9502 3.15155 3.14911C3.95223 2.33318 4.9212 1.70164 5.99092 1.29849C7.01176 0.903281 8.17842 0.632031 9.88467 0.553281H9.88613ZM22.982 3.44078C21.2903 3.36349 20.7828 3.34745 16.4997 3.34745C12.2165 3.34745 11.709 3.36349 10.0174 3.44078C8.45259 3.51224 7.60384 3.77328 7.03801 3.99349C6.28988 4.28516 5.75467 4.63078 5.19322 5.19224C4.66099 5.71002 4.2514 6.34036 3.99447 7.03703C3.77426 7.60286 3.51322 8.45161 3.44176 10.0164C3.36447 11.7081 3.34842 12.2156 3.34842 16.4987C3.34842 20.7818 3.36447 21.2893 3.44176 22.981C3.51322 24.5458 3.77426 25.3945 3.99447 25.9604C4.25113 26.656 4.66092 27.2874 5.19322 27.8052C5.71092 28.3374 6.34238 28.7472 7.03801 29.0039C7.60384 29.2241 8.45259 29.4852 10.0174 29.5566C11.709 29.6339 12.2151 29.6499 16.4997 29.6499C20.7843 29.6499 21.2903 29.6339 22.982 29.5566C24.5468 29.4852 25.3955 29.2241 25.9613 29.0039C26.7095 28.7122 27.2447 28.3666 27.8061 27.8052C28.3384 27.2874 28.7482 26.656 29.0049 25.9604C29.2251 25.3945 29.4861 24.5458 29.5576 22.981C29.6349 21.2893 29.6509 20.7818 29.6509 16.4987C29.6509 12.2156 29.6349 11.7081 29.5576 10.0164C29.4861 8.45161 29.2251 7.60286 29.0049 7.03703C28.7132 6.28891 28.3676 5.7537 27.8061 5.19224C27.2883 4.66005 26.658 4.25046 25.9613 3.99349C25.3955 3.77328 24.5468 3.51224 22.982 3.44078ZM14.4507 21.4439C15.595 21.9202 16.8692 21.9845 18.0556 21.6258C19.242 21.267 20.2671 20.5075 20.9558 19.477C21.6444 18.4464 21.9539 17.2087 21.8314 15.9753C21.7089 14.7419 21.162 13.5893 20.284 12.7143C19.7244 12.155 19.0477 11.7268 18.3027 11.4604C17.5576 11.194 16.7628 11.0961 15.9754 11.1738C15.188 11.2514 14.4276 11.5027 13.749 11.9095C13.0703 12.3163 12.4903 12.8685 12.0507 13.5264C11.6111 14.1843 11.3229 14.9314 11.2067 15.7141C11.0905 16.4967 11.1493 17.2954 11.3788 18.0526C11.6083 18.8098 12.0029 19.5067 12.5341 20.0931C13.0652 20.6795 13.7198 21.1408 14.4507 21.4439ZM10.6693 10.6683C11.4349 9.90262 12.3439 9.29526 13.3443 8.88089C14.3447 8.46652 15.4169 8.25324 16.4997 8.25324C17.5825 8.25324 18.6547 8.46652 19.6551 8.88089C20.6555 9.29526 21.5644 9.90262 22.3301 10.6683C23.0958 11.4339 23.7031 12.3429 24.1175 13.3433C24.5319 14.3437 24.7451 15.4159 24.7451 16.4987C24.7451 17.5815 24.5319 18.6537 24.1175 19.6541C23.7031 20.6545 23.0958 21.5635 22.3301 22.3291C20.7838 23.8754 18.6865 24.7442 16.4997 24.7442C14.3128 24.7442 12.2156 23.8754 10.6693 22.3291C9.12293 20.7828 8.25422 18.6855 8.25422 16.4987C8.25422 14.3119 9.12293 12.2146 10.6693 10.6683ZM26.5738 9.4812C26.7636 9.30221 26.9155 9.08698 27.0205 8.84824C27.1256 8.6095 27.1817 8.35211 27.1855 8.0913C27.1893 7.8305 27.1407 7.57158 27.0427 7.32988C26.9446 7.08818 26.7991 6.86861 26.6146 6.68417C26.4302 6.49973 26.2106 6.35418 25.9689 6.25612C25.7272 6.15806 25.4683 6.1095 25.2075 6.1133C24.9467 6.1171 24.6893 6.17319 24.4505 6.27825C24.2118 6.38332 23.9966 6.53521 23.8176 6.72495C23.4695 7.09395 23.2789 7.58408 23.2863 8.0913C23.2937 8.59852 23.4985 9.0829 23.8572 9.44159C24.2159 9.80029 24.7003 10.0051 25.2075 10.0125C25.7147 10.0199 26.2048 9.82929 26.5738 9.4812Z" fill="white"/>
</svg>
