<svg width="25" height="40" viewBox="0 0 25 40" fill="none" xmlns="http://www.w3.org/2000/svg">
<path d="M9.815 0.5C8.33 0.5 6.893 1.01409 5.6555 1.98909L2.6675 4.34327L4.3325 7.29309L7.3205 4.93891C8.05882 4.35581 8.92699 4.04486 9.815 4.04545H16.3925C17.1335 4.04707 17.8561 4.3181 18.4623 4.82176C19.0685 5.32541 19.5289 6.0373 19.781 6.86079C20.0331 7.68429 20.0647 8.5795 19.8714 9.42494C19.6782 10.2704 19.2696 11.0251 18.701 11.5866L17.36 12.9091H0.5V16.4545H13.76L8.357 21.7727H0.5V25.3182H4.76L4.379 25.6905C3.63346 26.4231 3.03375 27.341 2.62256 28.3788C2.21137 29.4166 1.9988 30.5488 2 31.6947C2.00238 33.7642 2.69918 35.7482 3.93757 37.2114C5.17597 38.6746 6.85485 39.4977 8.606 39.5H15.1835C16.6685 39.5 18.1085 38.9859 19.343 38.0109L22.3325 35.6567L20.6675 32.7069L17.6795 35.0611C16.9412 35.6442 16.073 35.9551 15.185 35.9545H8.6075C7.8665 35.9529 7.14387 35.6819 6.53768 35.1782C5.93149 34.6746 5.47111 33.9627 5.21902 33.1392C4.96693 32.3157 4.93535 31.4205 5.12855 30.5751C5.32176 29.7296 5.7304 28.9749 6.299 28.4134L9.4415 25.3182H24.5V21.7727H13.0415L18.4415 16.4545H24.5V12.9091H21.725C22.5533 11.5744 22.9999 9.9623 23 8.30709C22.998 6.23724 22.3014 4.25284 21.063 2.78923C19.8245 1.32563 18.1454 0.502346 16.394 0.5H9.815Z" fill="black"/>
</svg>
