<svg width="104" height="43" viewBox="0 0 104 43" fill="none" xmlns="http://www.w3.org/2000/svg">
<path d="M53.3462 10.4941H56.6601V24.5477H53.9885V19.157C53.9885 17.7447 54.0424 16.4817 54.1531 15.3652C54.2637 14.246 54.3717 13.2015 54.4769 12.2262L52.82 18.5788H50.3831L48.7261 12.458C48.8422 13.2921 48.9609 14.246 49.085 15.3252C49.2092 16.4044 49.2713 17.6808 49.2713 19.157V24.5477H46.5996V10.4941H49.8946L51.163 14.9228C51.3033 15.3838 51.414 15.7889 51.4841 16.1326C51.5543 16.4817 51.5975 16.7242 51.611 16.8654C51.6218 16.7242 51.665 16.4817 51.7378 16.1326C51.808 15.7889 51.9078 15.3838 52.0401 14.9228L53.3462 10.4941Z" fill="black"/>
<path d="M67.5922 14.8904C66.9526 14.1416 66.116 13.7659 65.0771 13.7659C64.3754 13.7659 63.7763 13.9417 63.2852 14.2961C62.7886 14.6479 62.4243 15.1462 62.1922 15.7884H62.1329V13.9577H59.3047V28.0113H62.23V25.1228L62.2084 24.5818L62.1329 22.7165H62.1922C62.4243 23.3614 62.7886 23.857 63.2852 24.2088C63.5092 24.3713 63.7601 24.4966 64.03 24.5818C64.3484 24.6884 64.6966 24.739 65.0771 24.739C65.463 24.739 65.8192 24.6884 66.1511 24.5818C66.7124 24.4086 67.1928 24.0835 67.5922 23.6119C68.2291 22.8604 68.5475 21.8585 68.5475 20.5981V17.9041C68.5475 16.6464 68.2291 15.6418 67.5922 14.8904ZM65.6222 20.5048C65.6222 21.0564 65.4765 21.4828 65.1823 21.7839C64.8909 22.085 64.478 22.2369 63.9464 22.2369C63.3877 22.2369 62.9614 22.077 62.6672 21.7652C62.3758 21.4508 62.23 20.9978 62.23 20.4089V18.0986C62.23 17.5071 62.3758 17.0541 62.6672 16.7396C62.9614 16.4252 63.3877 16.268 63.9464 16.268C64.478 16.268 64.8909 16.4146 65.1823 16.7103C65.4765 17.0088 65.6222 17.4351 65.6222 18V20.5048Z" fill="black"/>
<path d="M73.8673 11.8781C73.5489 11.6089 73.3896 11.2412 73.3896 10.7802C73.3896 10.3192 73.5489 9.95418 73.8673 9.68505C74.1858 9.41325 74.6121 9.27734 75.1438 9.27734C75.6781 9.27734 76.1018 9.41325 76.4202 9.68505C76.7387 9.95418 76.8979 10.3192 76.8979 10.7802C76.8979 11.2412 76.7387 11.6089 76.4202 11.8781C76.1018 12.1472 75.6781 12.2831 75.1438 12.2831C74.6121 12.2831 74.1858 12.1472 73.8673 11.8781Z" fill="black"/>
<path d="M81.1556 11.8781C80.8749 11.6089 80.7373 11.2412 80.7373 10.7802C80.7373 10.3192 80.8749 9.95418 81.1556 9.68505C81.4336 9.41325 81.8141 9.27734 82.2944 9.27734C82.7775 9.27734 83.158 9.41325 83.4359 9.68505C83.7166 9.95418 83.8542 10.3192 83.8542 10.7802C83.8542 11.2412 83.7166 11.6089 83.4359 11.8781C83.158 12.1472 82.7775 12.2831 82.2944 12.2831C81.8141 12.2831 81.4336 12.1472 81.1556 11.8781Z" fill="black"/>
<path d="M85.9142 11.8781C85.6335 11.6089 85.4932 11.2412 85.4932 10.7802C85.4932 10.3192 85.6335 9.95418 85.9142 9.68505C86.1921 9.41325 86.5726 9.27734 87.053 9.27734C87.5333 9.27734 87.9138 9.41325 88.1945 9.68505C88.4725 9.95418 88.6128 10.3192 88.6128 10.7802C88.6128 11.2412 88.4725 11.6089 88.1945 11.8781C87.9138 12.1472 87.5333 12.2831 87.053 12.2831C86.5726 12.2831 86.1921 12.1472 85.9142 11.8781Z" fill="black"/>
<path d="M89.3543 21.945V24.5457H70.2695V21.945H73.8182V16.5544H70.6609V13.9563H76.7409V21.945H83.3471V16.5544H80.1897V13.9563H86.2725V21.945H89.3543Z" fill="black"/>
<path d="M96.595 7.30923V0H0V35.6908H7.40504V43H104V7.30923H96.595ZM20.9225 27.2437H18.1942V24.5497H12.8131V27.2437H10.0848V22.1435H10.6893C10.9106 21.8104 11.1372 21.2695 11.3693 20.5181C11.6041 19.7666 11.7282 18.9299 11.7417 18.0026L11.8605 10.4962H19.754V22.1435H20.9225V27.2437ZM31.6091 20.5074C31.6091 21.3521 31.4175 22.0956 31.0343 22.7297C30.6511 23.3666 30.1114 23.8622 29.4178 24.2113C29.0967 24.3765 28.7512 24.5018 28.3734 24.587C27.9309 24.691 27.4505 24.7416 26.9297 24.7416C26.4169 24.7416 25.942 24.691 25.4994 24.587C25.1243 24.5018 24.7762 24.3765 24.455 24.2113C23.7507 23.8622 23.2083 23.3666 22.8278 22.7297C22.4418 22.0956 22.2529 21.3521 22.2529 20.5074V18.0026C22.2529 17.1579 22.4418 16.4171 22.8278 15.7829C23.2083 15.1461 23.7507 14.6531 24.455 14.2987C25.154 13.947 25.9824 13.7684 26.9297 13.7684C27.8931 13.7684 28.7189 13.947 29.4178 14.2987C30.1114 14.6531 30.6511 15.1461 31.0343 15.7829C31.4175 16.4171 31.6091 17.1579 31.6091 18.0026V20.5074ZM94.1041 33.2313H39.8373V2.4595H94.1041V33.2313Z" fill="black"/>
<path d="M28.6867 17.9999V20.5047C28.6867 21.0563 28.5356 21.4826 28.2387 21.7864C27.9365 22.0875 27.5047 22.2367 26.9299 22.2367C26.3713 22.2367 25.9395 22.0875 25.6346 21.7864C25.3269 21.4826 25.1758 21.0563 25.1758 20.5047V17.9999C25.1758 17.4376 25.3269 17.0086 25.6346 16.7128C25.9395 16.4171 26.3713 16.2705 26.9299 16.2705C27.5047 16.2705 27.9365 16.4171 28.2387 16.7128C28.5356 17.0086 28.6867 17.4376 28.6867 17.9999Z" fill="black"/>
<path d="M17.0261 12.9019V22.143H13.5557C13.6852 21.8978 13.8174 21.5647 13.9551 21.1411C14.0927 20.7174 14.2114 20.2351 14.314 19.6888C14.4192 19.1425 14.4705 18.575 14.4705 17.9861L14.5487 12.9019H17.0261Z" fill="black"/>
<path d="M76.8979 10.7802C76.8979 11.2412 76.7387 11.6089 76.4202 11.8781C76.1018 12.1472 75.6781 12.2831 75.1438 12.2831C74.6121 12.2831 74.1858 12.1472 73.8673 11.8781C73.5489 11.6089 73.3896 11.2412 73.3896 10.7802C73.3896 10.3192 73.5489 9.95418 73.8673 9.68505C74.1858 9.41325 74.6121 9.27734 75.1438 9.27734C75.6781 9.27734 76.1018 9.41325 76.4202 9.68505C76.7387 9.95418 76.8979 10.3192 76.8979 10.7802Z" fill="black"/>
<path d="M88.6128 10.7802C88.6128 11.2412 88.4725 11.6089 88.1945 11.8781C87.9138 12.1472 87.5333 12.2831 87.053 12.2831C86.5726 12.2831 86.1921 12.1472 85.9142 11.8781C85.6335 11.6089 85.4932 11.2412 85.4932 10.7802C85.4932 10.3192 85.6335 9.95418 85.9142 9.68505C86.1921 9.41325 86.5726 9.27734 87.053 9.27734C87.5333 9.27734 87.9138 9.41325 88.1945 9.68505C88.4725 9.95418 88.6128 10.3192 88.6128 10.7802Z" fill="black"/>
<path d="M56.6601 10.4941V24.5477H53.9885V19.157C53.9885 17.7447 54.0424 16.4817 54.1531 15.3652C54.2637 14.246 54.3717 13.2015 54.4769 12.2262L52.82 18.5788H50.3831L48.7261 12.458C48.8422 13.2921 48.9609 14.246 49.085 15.3252C49.2092 16.4044 49.2713 17.6808 49.2713 19.157V24.5477H46.5996V10.4941H49.8946L51.163 14.9228C51.3033 15.3838 51.414 15.7889 51.4841 16.1326C51.5543 16.4817 51.5975 16.7242 51.611 16.8654C51.6218 16.7242 51.665 16.4817 51.7378 16.1326C51.808 15.7889 51.9078 15.3838 52.0401 14.9228L53.3462 10.4941H56.6601Z" fill="black"/>
<path d="M67.5922 14.8904C66.9526 14.1416 66.116 13.7659 65.0771 13.7659C64.3754 13.7659 63.7763 13.9417 63.2852 14.2961C62.7886 14.6479 62.4243 15.1462 62.1922 15.7884H62.1329V13.9577H59.3047V28.0113H62.23V25.1228L62.2084 24.5818L62.1329 22.7165H62.1922C62.4243 23.3614 62.7886 23.857 63.2852 24.2088C63.5092 24.3713 63.7601 24.4966 64.03 24.5818C64.3484 24.6884 64.6966 24.739 65.0771 24.739C65.463 24.739 65.8192 24.6884 66.1511 24.5818C66.7124 24.4086 67.1928 24.0835 67.5922 23.6119C68.2291 22.8604 68.5475 21.8585 68.5475 20.5981V17.9041C68.5475 16.6464 68.2291 15.6418 67.5922 14.8904ZM65.6222 20.5048C65.6222 21.0564 65.4765 21.4828 65.1823 21.7839C64.8909 22.085 64.478 22.2369 63.9464 22.2369C63.3877 22.2369 62.9614 22.077 62.6672 21.7652C62.3758 21.4508 62.23 20.9978 62.23 20.4089V18.0986C62.23 17.5071 62.3758 17.0541 62.6672 16.7396C62.9614 16.4252 63.3877 16.268 63.9464 16.268C64.478 16.268 64.8909 16.4146 65.1823 16.7103C65.4765 17.0088 65.6222 17.4351 65.6222 18V20.5048Z" fill="black"/>
<path d="M89.3543 21.945V24.5457H70.2695V21.945H73.8182V16.5544H70.6609V13.9563H76.7409V21.945H83.3471V16.5544H80.1897V13.9563H86.2725V21.945H89.3543Z" fill="black"/>
<path d="M83.8542 10.7802C83.8542 11.2412 83.7166 11.6089 83.4359 11.8781C83.158 12.1472 82.7775 12.2831 82.2944 12.2831C81.8141 12.2831 81.4336 12.1472 81.1556 11.8781C80.8749 11.6089 80.7373 11.2412 80.7373 10.7802C80.7373 10.3192 80.8749 9.95418 81.1556 9.68505C81.4336 9.41325 81.8141 9.27734 82.2944 9.27734C82.7775 9.27734 83.158 9.41325 83.4359 9.68505C83.7166 9.95418 83.8542 10.3192 83.8542 10.7802Z" fill="black"/>
</svg>
