<svg width="104" height="43" viewBox="0 0 104 43" fill="none" xmlns="http://www.w3.org/2000/svg">
<path d="M53.3466 10.4941H56.6605V24.5477H53.9888V19.157C53.9888 17.7447 54.0428 16.4817 54.1535 15.3652C54.2641 14.246 54.3721 13.2015 54.4773 12.2262L52.8203 18.5788H50.3835L48.7265 12.458C48.8425 13.2921 48.9613 14.246 49.0854 15.3252C49.2095 16.4044 49.2716 17.6808 49.2716 19.157V24.5477H46.6V10.4941H49.895L51.1634 14.9228C51.3037 15.3838 51.4143 15.7889 51.4845 16.1326C51.5547 16.4817 51.5979 16.7242 51.6114 16.8654C51.6222 16.7242 51.6653 16.4817 51.7382 16.1326C51.8084 15.7889 51.9082 15.3838 52.0404 14.9228L53.3466 10.4941Z" fill="#FFFFF8"/>
<path d="M67.5926 14.8901C66.953 14.1413 66.1164 13.7656 65.0774 13.7656C64.3758 13.7656 63.7767 13.9415 63.2855 14.2959C62.789 14.6476 62.4247 15.1459 62.1926 15.7881H62.1333V13.9575H59.3051V28.011H62.2304V25.1225L62.2088 24.5816L62.1333 22.7163H62.1926C62.4247 23.3612 62.789 23.8568 63.2855 24.2085C63.5095 24.3711 63.7605 24.4963 64.0304 24.5816C64.3488 24.6882 64.6969 24.7388 65.0774 24.7388C65.4633 24.7388 65.8196 24.6882 66.1515 24.5816C66.7128 24.4084 67.1932 24.0833 67.5926 23.6116C68.2295 22.8602 68.5479 21.8583 68.5479 20.5979V17.9039C68.5479 16.6461 68.2295 15.6416 67.5926 14.8901ZM65.6226 20.5046C65.6226 21.0562 65.4768 21.4825 65.1827 21.7837C64.8912 22.0848 64.4784 22.2366 63.9467 22.2366C63.3881 22.2366 62.9617 22.0768 62.6676 21.765C62.3761 21.4506 62.2304 20.9976 62.2304 20.4087V18.0984C62.2304 17.5068 62.3761 17.0538 62.6676 16.7394C62.9617 16.425 63.3881 16.2678 63.9467 16.2678C64.4784 16.2678 64.8912 16.4143 65.1827 16.7101C65.4768 17.0085 65.6226 17.4349 65.6226 17.9998V20.5046Z" fill="#FFFFF8"/>
<path d="M73.8672 11.8781C73.5488 11.6089 73.3895 11.2412 73.3895 10.7802C73.3895 10.3192 73.5488 9.95418 73.8672 9.68505C74.1856 9.41325 74.612 9.27734 75.1436 9.27734C75.678 9.27734 76.1016 9.41325 76.4201 9.68505C76.7385 9.95418 76.8978 10.3192 76.8978 10.7802C76.8978 11.2412 76.7385 11.6089 76.4201 11.8781C76.1016 12.1472 75.678 12.2831 75.1436 12.2831C74.612 12.2831 74.1856 12.1472 73.8672 11.8781Z" fill="#FFFFF8"/>
<path d="M81.156 11.8781C80.8754 11.6089 80.7377 11.2412 80.7377 10.7802C80.7377 10.3192 80.8754 9.95418 81.156 9.68505C81.434 9.41325 81.8145 9.27734 82.2948 9.27734C82.7779 9.27734 83.1584 9.41325 83.4364 9.68505C83.717 9.95418 83.8547 10.3192 83.8547 10.7802C83.8547 11.2412 83.717 11.6089 83.4364 11.8781C83.1584 12.1472 82.7779 12.2831 82.2948 12.2831C81.8145 12.2831 81.434 12.1472 81.156 11.8781Z" fill="#FFFFF8"/>
<path d="M85.9137 11.8781C85.6331 11.6089 85.4927 11.2412 85.4927 10.7802C85.4927 10.3192 85.6331 9.95418 85.9137 9.68505C86.1917 9.41325 86.5722 9.27734 87.0526 9.27734C87.5329 9.27734 87.9134 9.41325 88.1941 9.68505C88.472 9.95418 88.6124 10.3192 88.6124 10.7802C88.6124 11.2412 88.472 11.6089 88.1941 11.8781C87.9134 12.1472 87.5329 12.2831 87.0526 12.2831C86.5722 12.2831 86.1917 12.1472 85.9137 11.8781Z" fill="#FFFFF8"/>
<path d="M89.3545 21.9457V24.5465H70.2697V21.9457H73.8184V16.5551H70.661V13.957H76.7411V21.9457H83.3473V16.5551H80.1899V13.957H86.2726V21.9457H89.3545Z" fill="#FFFFF8"/>
<path d="M96.595 7.30923V0H0V35.6908H7.40504V43H104V7.30923H96.595ZM20.9225 27.2437H18.1942V24.5497H12.8131V27.2437H10.0848V22.1435H10.6893C10.9106 21.8104 11.1372 21.2695 11.3693 20.5181C11.6041 19.7666 11.7282 18.9299 11.7417 18.0026L11.8605 10.4962H19.754V22.1435H20.9225V27.2437ZM31.6091 20.5074C31.6091 21.3521 31.4175 22.0956 31.0343 22.7297C30.6511 23.3666 30.1114 23.8622 29.4178 24.2113C29.0967 24.3765 28.7512 24.5018 28.3734 24.587C27.9309 24.691 27.4505 24.7416 26.9297 24.7416C26.4169 24.7416 25.942 24.691 25.4994 24.587C25.1243 24.5018 24.7762 24.3765 24.455 24.2113C23.7507 23.8622 23.2083 23.3666 22.8278 22.7297C22.4418 22.0956 22.2529 21.3521 22.2529 20.5074V18.0026C22.2529 17.1579 22.4418 16.4171 22.8278 15.7829C23.2083 15.1461 23.7507 14.6531 24.455 14.2987C25.154 13.947 25.9824 13.7684 26.9297 13.7684C27.8931 13.7684 28.7189 13.947 29.4178 14.2987C30.1114 14.6531 30.6511 15.1461 31.0343 15.7829C31.4175 16.4171 31.6091 17.1579 31.6091 18.0026V20.5074ZM94.1041 33.2313H39.8373V2.4595H94.1041V33.2313Z" fill="#FFFFF8"/>
<path d="M28.6864 18.0009V20.5057C28.6864 21.0573 28.5353 21.4836 28.2384 21.7874C27.9362 22.0885 27.5044 22.2377 26.9296 22.2377C26.371 22.2377 25.9392 22.0885 25.6343 21.7874C25.3266 21.4836 25.1755 21.0573 25.1755 20.5057V18.0009C25.1755 17.4386 25.3266 17.0096 25.6343 16.7138C25.9392 16.418 26.371 16.2715 26.9296 16.2715C27.5044 16.2715 27.9362 16.418 28.2384 16.7138C28.5353 17.0096 28.6864 17.4386 28.6864 18.0009Z" fill="#FFFFF8"/>
<path d="M17.0257 12.9023V22.1435H13.5552C13.6848 21.8983 13.817 21.5652 13.9546 21.1415C14.0923 20.7179 14.211 20.2356 14.3135 19.6893C14.4188 19.143 14.4701 18.5755 14.4701 17.9866L14.5483 12.9023H17.0257Z" fill="#FFFFF8"/>
<path d="M76.8978 10.7802C76.8978 11.2412 76.7385 11.6089 76.4201 11.8781C76.1016 12.1472 75.678 12.2831 75.1436 12.2831C74.612 12.2831 74.1856 12.1472 73.8672 11.8781C73.5488 11.6089 73.3895 11.2412 73.3895 10.7802C73.3895 10.3192 73.5488 9.95418 73.8672 9.68505C74.1856 9.41325 74.612 9.27734 75.1436 9.27734C75.678 9.27734 76.1016 9.41325 76.4201 9.68505C76.7385 9.95418 76.8978 10.3192 76.8978 10.7802Z" fill="#FFFFF8"/>
<path d="M88.6124 10.7802C88.6124 11.2412 88.472 11.6089 88.1941 11.8781C87.9134 12.1472 87.5329 12.2831 87.0526 12.2831C86.5722 12.2831 86.1917 12.1472 85.9137 11.8781C85.6331 11.6089 85.4927 11.2412 85.4927 10.7802C85.4927 10.3192 85.6331 9.95418 85.9137 9.68505C86.1917 9.41325 86.5722 9.27734 87.0526 9.27734C87.5329 9.27734 87.9134 9.41325 88.1941 9.68505C88.472 9.95418 88.6124 10.3192 88.6124 10.7802Z" fill="#FFFFF8"/>
<path d="M56.6605 10.4941V24.5477H53.9888V19.157C53.9888 17.7447 54.0428 16.4817 54.1535 15.3652C54.2641 14.246 54.3721 13.2015 54.4773 12.2262L52.8203 18.5788H50.3835L48.7265 12.458C48.8425 13.2921 48.9613 14.246 49.0854 15.3252C49.2095 16.4044 49.2716 17.6808 49.2716 19.157V24.5477H46.6V10.4941H49.895L51.1634 14.9228C51.3037 15.3838 51.4143 15.7889 51.4845 16.1326C51.5547 16.4817 51.5979 16.7242 51.6114 16.8654C51.6222 16.7242 51.6653 16.4817 51.7382 16.1326C51.8084 15.7889 51.9082 15.3838 52.0404 14.9228L53.3466 10.4941H56.6605Z" fill="#FFFFF8"/>
<path d="M67.5926 14.8901C66.953 14.1413 66.1164 13.7656 65.0774 13.7656C64.3758 13.7656 63.7767 13.9415 63.2855 14.2959C62.789 14.6476 62.4247 15.1459 62.1926 15.7881H62.1333V13.9575H59.3051V28.011H62.2304V25.1225L62.2088 24.5816L62.1333 22.7163H62.1926C62.4247 23.3612 62.789 23.8568 63.2855 24.2085C63.5095 24.3711 63.7605 24.4963 64.0304 24.5816C64.3488 24.6882 64.6969 24.7388 65.0774 24.7388C65.4633 24.7388 65.8196 24.6882 66.1515 24.5816C66.7128 24.4084 67.1932 24.0833 67.5926 23.6116C68.2295 22.8602 68.5479 21.8583 68.5479 20.5979V17.9039C68.5479 16.6461 68.2295 15.6416 67.5926 14.8901ZM65.6226 20.5046C65.6226 21.0562 65.4768 21.4825 65.1827 21.7837C64.8912 22.0848 64.4784 22.2366 63.9467 22.2366C63.3881 22.2366 62.9617 22.0768 62.6676 21.765C62.3761 21.4506 62.2304 20.9976 62.2304 20.4087V18.0984C62.2304 17.5068 62.3761 17.0538 62.6676 16.7394C62.9617 16.425 63.3881 16.2678 63.9467 16.2678C64.4784 16.2678 64.8912 16.4143 65.1827 16.7101C65.4768 17.0085 65.6226 17.4349 65.6226 17.9998V20.5046Z" fill="#FFFFF8"/>
<path d="M89.3545 21.9457V24.5465H70.2697V21.9457H73.8184V16.5551H70.661V13.957H76.7411V21.9457H83.3473V16.5551H80.1899V13.957H86.2726V21.9457H89.3545Z" fill="#FFFFF8"/>
<path d="M83.8547 10.7802C83.8547 11.2412 83.717 11.6089 83.4364 11.8781C83.1584 12.1472 82.7779 12.2831 82.2948 12.2831C81.8145 12.2831 81.434 12.1472 81.156 11.8781C80.8754 11.6089 80.7377 11.2412 80.7377 10.7802C80.7377 10.3192 80.8754 9.95418 81.156 9.68505C81.434 9.41325 81.8145 9.27734 82.2948 9.27734C82.7779 9.27734 83.1584 9.41325 83.4364 9.68505C83.717 9.95418 83.8547 10.3192 83.8547 10.7802Z" fill="#FFFFF8"/>
</svg>
