<svg width="49" height="49" viewBox="0 0 49 49" fill="none" xmlns="http://www.w3.org/2000/svg">
<path d="M8.85742 36.875C6.58278 36.875 4.73242 38.7254 4.73242 41C4.73242 43.2746 6.58278 45.125 8.85742 45.125C11.1321 45.125 12.9824 43.2746 12.9824 41C12.9824 38.7254 11.1317 36.875 8.85742 36.875ZM8.85742 43.9251C7.24439 43.9251 5.93232 42.613 5.93232 41C5.93232 39.387 7.24439 38.0749 8.85742 38.0749C10.4705 38.0749 11.7825 39.387 11.7825 41C11.7821 42.613 10.47 43.9251 8.85742 43.9251Z" fill="black"/>
<path d="M19.2822 36.875C17.0076 36.875 15.1572 38.7254 15.1572 41C15.1572 43.2746 17.0076 45.125 19.2822 45.125C21.5568 45.125 23.4072 43.2746 23.4072 41C23.4072 38.7254 21.5568 36.875 19.2822 36.875ZM19.2822 43.9251C17.6692 43.9251 16.3571 42.613 16.3571 41C16.3571 39.387 17.6692 38.0749 19.2822 38.0749C20.8952 38.0749 22.2073 39.387 22.2073 41C22.2073 42.613 20.8952 43.9251 19.2822 43.9251Z" fill="black"/>
<path d="M29.707 36.875C27.4324 36.875 25.582 38.7254 25.582 41C25.582 43.2746 27.4324 45.125 29.707 45.125C31.9817 45.125 33.832 43.2746 33.832 41C33.832 38.7254 31.9817 36.875 29.707 36.875ZM29.707 43.9251C28.094 43.9251 26.7819 42.613 26.7819 41C26.7819 39.387 28.094 38.0749 29.707 38.0749C31.3201 38.0749 32.6321 39.387 32.6321 41C32.6321 42.613 31.3201 43.9251 29.707 43.9251Z" fill="black"/>
<path d="M36.0068 41C36.0068 43.2746 37.8572 45.125 40.1318 45.125C42.4065 45.125 44.2568 43.2746 44.2568 41C44.2568 38.7254 42.4065 36.875 40.1318 36.875C37.8572 36.875 36.0068 38.7254 36.0068 41ZM40.1318 38.0749C41.7449 38.0749 43.0569 39.387 43.0569 41C43.0569 42.613 41.7449 43.9251 40.1318 43.9251C38.5188 43.9251 37.2067 42.613 37.2067 41C37.2067 39.387 38.5188 38.0749 40.1318 38.0749Z" fill="black"/>
<path d="M47.9001 7.27507H45.332C44.4602 7.27507 43.752 7.96355 43.7085 8.82489H24.2632C24.0552 6.46229 22.1488 4.58482 19.7749 4.41736V2.70436C19.7749 1.48893 18.7859 0.5 17.5705 0.5H13.5999C12.3845 0.5 11.3955 1.48898 11.3955 2.70436V4.41736C8.87939 4.59481 6.88546 6.69286 6.88546 9.25346V15.6845H5.33231C5.00084 15.6845 4.73214 15.9528 4.73214 16.2847V33.8004C2.27911 34.5964 0.5 36.9009 0.5 39.615V42.3852C0.5 45.7569 3.24307 48.5003 6.61464 48.5003H42.3736C45.7453 48.5003 48.4882 45.7569 48.4882 42.3856V39.6155C48.4882 36.2438 45.7451 33.5004 42.3736 33.5004H39.1564L36.8265 16.2043C36.7863 15.9067 36.5318 15.6845 36.2317 15.6845H24.2842V13.6249H43.7607C43.9469 14.3213 44.5772 14.8377 45.331 14.8377H47.8991C48.2305 14.8377 48.4992 14.5695 48.4992 14.2376V7.87511C48.4992 7.54322 48.2305 7.27494 47.8991 7.27494L47.9001 7.27507ZM12.5954 2.70436C12.5954 2.15064 13.0462 1.69989 13.6003 1.69989H17.5709C18.125 1.69989 18.5754 2.15064 18.5754 2.70436V4.39979H12.5955L12.5954 2.70436ZM47.2894 39.6151V42.3852C47.2894 45.0956 45.0846 47.3004 42.3746 47.3004H6.61567C3.90571 47.3004 1.70092 45.0956 1.70092 42.3857V39.6155C1.70092 36.9051 3.90571 34.7003 6.61567 34.7003H42.3746C45.085 34.7003 47.2898 36.9051 47.2898 39.6151H47.2894ZM37.9466 33.5004H5.93232L5.93273 16.8847H35.7077L37.9466 33.5004ZM8.08589 15.6847V9.25368C8.08589 7.23929 9.72485 5.60032 11.7392 5.60032H19.4331C21.4475 5.60032 23.086 7.23929 23.086 9.25368V15.6847H8.08589ZM24.2859 10.025H43.7012V12.4248L24.2859 12.4252V10.025ZM47.3012 13.6382H45.3329C45.0948 13.6382 44.901 13.444 44.901 13.2063V8.90716C44.901 8.66943 45.0948 8.47524 45.3329 8.47524H47.3012V13.6382Z" fill="black"/>
<path d="M11.5347 29.7023C11.8662 29.7023 12.1349 29.434 12.1349 29.1021V21.2799C12.1349 20.9484 11.8662 20.6797 11.5347 20.6797C11.2032 20.6797 10.9345 20.948 10.9345 21.2799L10.935 29.1021C10.935 29.434 11.2037 29.7023 11.5347 29.7023Z" fill="black"/>
<path d="M15.5845 29.7023C15.916 29.7023 16.1847 29.434 16.1847 29.1021V21.2799C16.1847 20.9484 15.916 20.6797 15.5845 20.6797C15.2531 20.6797 14.9844 20.948 14.9844 21.2799V29.1021C14.9844 29.434 15.2531 29.7023 15.5845 29.7023Z" fill="black"/>
<path d="M19.6347 29.7023C19.9662 29.7023 20.2349 29.434 20.2349 29.1021L20.2345 21.2799C20.2345 20.9484 19.9658 20.6797 19.6343 20.6797C19.3028 20.6797 19.0341 20.948 19.0341 21.2799L19.0345 29.1021C19.0345 29.434 19.3032 29.7023 19.6347 29.7023Z" fill="black"/>
</svg>
