<svg width="41" height="49" viewBox="0 0 41 49" fill="none" xmlns="http://www.w3.org/2000/svg">
<path d="M0 19.9291V45.3431C0 47.3543 1.67229 49 3.71616 49H15.4833C17.3414 49 18.8274 47.6592 19.1372 45.9528H21.8624C22.1721 47.6592 23.6582 49 25.5162 49H37.2834C39.3272 49 40.9996 47.3544 40.9996 45.3431L41 19.9291C41 18.4055 40.5045 16.9427 39.6375 15.8458C37.9652 13.8346 37.0363 10.8481 37.0363 7.80083C37.0363 6.46005 37.2221 5.18042 37.5318 3.9612C37.7794 2.98598 37.5936 1.95002 36.9745 1.21879C36.355 0.426375 35.4881 0 34.4975 0H30.5956C30.5338 0 30.4099 -7.56791e-09 30.3481 0.0607914C18.4571 4.93649 10.9013 0.182801 10.8394 0.121583H10.7776C10.7158 0.121583 10.7158 0.0607914 10.6536 0.0607914H10.5296H10.4679H6.56601C5.57499 0.0607914 4.64621 0.487612 4.08893 1.27958C3.46943 2.07199 3.28368 3.10804 3.53164 4.02199C3.84139 5.24078 4.02716 6.52084 4.02716 7.86163C4.02716 10.9089 3.09835 13.8953 1.426 15.9066C0.495882 16.943 0 18.4055 0 19.9291ZM39.7606 32.4228H23.0388V29.9239H25.2067C25.5782 29.9239 25.8262 29.6803 25.8262 29.3143C25.8262 28.9487 25.5787 28.7047 25.2067 28.7047H23.0388V25.7183H39.7606V32.4228ZM19.199 29.9239H21.8002V44.7335H19.199V29.9239ZM21.8002 28.7051H19.199V22.4887H21.8002V28.7051ZM17.9605 28.7051H14.6781C14.3066 28.7051 14.0586 28.9487 14.0586 29.3148C14.0586 29.6804 14.3061 29.9244 14.6781 29.9244H17.9605V32.4232H1.23876V25.7191H17.9605V28.7051ZM15.483 47.7809H3.71583C2.35332 47.7809 1.23876 46.6841 1.23876 45.3433V33.6419H17.9605V45.3433C17.9605 46.6841 16.8455 47.7809 15.483 47.7809ZM37.2212 47.7809H25.4541C24.0916 47.7809 22.977 46.6841 22.977 45.3433L22.9766 33.6419H39.6983V45.3433C39.7601 46.6841 38.6455 47.7809 37.2212 47.7809ZM34.4344 1.15806C35.0539 1.15806 35.6112 1.40166 35.9827 1.88927C36.3542 2.37688 36.4782 2.98606 36.2925 3.59573C35.9209 4.93651 35.7352 6.33814 35.7352 7.73976C35.7352 11.0918 36.788 14.2611 38.5843 16.5159C39.3273 17.4299 39.6988 18.5879 39.6988 19.868V24.4389H22.9771V22.4277H25.145C25.5165 22.4277 25.7645 22.1841 25.7645 21.8181C25.7645 21.4525 25.5169 21.2084 25.145 21.2084H22.9771L22.9767 14.6272C22.9767 13.2255 23.7819 11.9455 24.9587 11.3971C28.7366 9.6299 31.0901 4.7542 31.0901 1.21929H34.4343L34.4344 1.15806ZM19.8184 3.47408C22.6675 3.47408 26.0734 2.92567 29.9753 1.46289C29.7895 4.63214 27.6839 8.83744 24.5251 10.2998C22.8528 11.0922 21.8 12.7374 21.8 14.6271V21.27H19.1988V14.6271C19.1988 12.7379 18.146 11.0315 16.4737 10.2998C13.3771 8.89817 11.2715 4.81497 11.0235 1.64562C12.51 2.31604 15.4828 3.47408 19.8184 3.47408ZM5.20232 7.80138C5.20232 6.33859 5.01656 4.93697 4.64503 3.65734C4.45926 3.04772 4.58325 2.43856 4.95478 1.95089C5.3263 1.46322 5.88359 1.21968 6.50309 1.21968H9.7855C9.84728 4.81532 12.2009 9.69102 15.9169 11.3975C17.1555 11.9459 17.899 13.2259 17.899 14.6276V21.2704H14.6166C14.245 21.2704 13.9971 21.514 13.9971 21.8801C13.9971 22.2457 14.2446 22.4897 14.6166 22.4897H17.899V24.5009H1.17723V19.93C1.17723 18.6499 1.54876 17.4924 2.2918 16.5779C4.14899 14.3222 5.20232 11.1535 5.20232 7.80138Z" fill="black"/>
<path d="M5.26438 35.2266C4.33557 35.2266 3.53027 35.9578 3.53027 36.933V44.3076C3.53027 45.2216 4.27333 46.014 5.26438 46.014C6.25539 46.014 6.99848 45.2828 6.99848 44.3076V36.933C6.9367 36.0186 6.19323 35.2266 5.26438 35.2266ZM5.69768 44.3071C5.69768 44.5507 5.51192 44.7948 5.20217 44.7948C4.89242 44.7948 4.70666 44.612 4.70666 44.3071L4.70709 36.933C4.70709 36.6894 4.89285 36.4454 5.2026 36.4454C5.51235 36.4454 5.69811 36.6282 5.69811 36.933L5.69768 44.3071Z" fill="black"/>
<path d="M9.59935 35.2266C8.67053 35.2266 7.86523 35.9578 7.86523 36.933V44.3076C7.86523 45.2216 8.60829 46.014 9.59935 46.014C10.5904 46.014 11.3335 45.2828 11.3335 44.3076V36.933C11.3335 36.0186 10.5286 35.2266 9.59935 35.2266ZM10.0949 44.3071C10.0949 44.5507 9.9091 44.7948 9.59935 44.7948C9.28959 44.7948 9.10383 44.612 9.10383 44.3071V36.933C9.10383 36.6894 9.28959 36.4454 9.59935 36.4454C9.9091 36.4454 10.0949 36.6282 10.0949 36.933V44.3071Z" fill="black"/>
<path d="M13.9343 35.2266C13.0055 35.2266 12.2002 35.9578 12.2002 36.933V44.3076C12.2002 45.2216 12.9433 46.014 13.9343 46.014C14.9253 46.014 15.6684 45.2828 15.6684 44.3076V36.933C15.6684 36.0186 14.8636 35.2266 13.9343 35.2266ZM14.4298 44.3071C14.4298 44.5507 14.2441 44.7948 13.9343 44.7948C13.6868 44.7948 13.4388 44.612 13.4388 44.3071V36.933C13.4388 36.6894 13.6246 36.4454 13.9343 36.4454C14.1818 36.4454 14.4298 36.6282 14.4298 36.933V44.3071Z" fill="black"/>
<path d="M27.0027 35.2266C26.0739 35.2266 25.2686 35.9578 25.2686 36.933V44.3076C25.2686 45.2216 26.0116 46.014 27.0027 46.014C27.9937 46.014 28.7368 45.2828 28.7368 44.3076V36.933C28.7368 36.0186 27.9937 35.2266 27.0027 35.2266ZM27.4982 44.3071C27.4982 44.5507 27.3124 44.7948 27.0027 44.7948C26.7551 44.7948 26.5071 44.612 26.5071 44.3071V36.933C26.5071 36.6894 26.6929 36.4454 27.0027 36.4454C27.2502 36.4454 27.4982 36.6282 27.4982 36.933V44.3071Z" fill="black"/>
<path d="M31.4001 35.2266C30.4713 35.2266 29.666 35.9578 29.666 36.933V44.3076C29.666 45.2216 30.4091 46.014 31.4001 46.014C32.3911 46.014 33.1342 45.2828 33.1342 44.3076V36.933C33.0724 36.0186 32.329 35.2266 31.4001 35.2266ZM31.8334 44.3071C31.8334 44.5507 31.6477 44.7948 31.3379 44.7948C31.0286 44.7948 30.9046 44.5512 30.9046 44.3071V36.933C30.9046 36.6894 31.0904 36.4454 31.4001 36.4454C31.7099 36.4454 31.8956 36.6282 31.8956 36.933V44.3071H31.8334Z" fill="black"/>
<path d="M35.7351 35.2266C34.8063 35.2266 34.001 35.9578 34.001 36.933V44.3076C34.001 45.2216 34.744 46.014 35.7351 46.014C36.7261 46.014 37.4692 45.2828 37.4692 44.3076V36.933C37.4074 36.0186 36.664 35.2266 35.7351 35.2266ZM36.1688 44.3071C36.1688 44.5507 35.9831 44.7948 35.6733 44.7948C35.3636 44.7948 35.2396 44.5512 35.2396 44.3071V36.933C35.2396 36.6894 35.4253 36.4454 35.7351 36.4454C36.0449 36.4454 36.2306 36.6282 36.2306 36.933V44.3071H36.1688Z" fill="black"/>
</svg>
