<svg width="103" height="103" viewBox="0 0 103 103" fill="none" xmlns="http://www.w3.org/2000/svg">
<path d="M51.5 0.3125C23.2326 0.3125 0.3125 23.2326 0.3125 51.5C0.3125 79.7674 23.2326 102.688 51.5 102.688C79.7674 102.688 102.688 79.7674 102.688 51.5C102.688 23.2326 79.7674 0.3125 51.5 0.3125ZM67.9645 52.2884L43.0106 70.4439C42.8738 70.5423 42.7126 70.6009 42.5446 70.6136C42.3766 70.6262 42.2084 70.5923 42.0584 70.5155C41.9085 70.4388 41.7826 70.3222 41.6946 70.1785C41.6065 70.0349 41.5598 69.8697 41.5596 69.7013V33.413C41.559 33.2442 41.6052 33.0785 41.693 32.9344C41.7809 32.7902 41.9069 32.6732 42.0572 32.5963C42.2074 32.5194 42.3761 32.4856 42.5444 32.4987C42.7127 32.5117 42.8741 32.5711 43.0106 32.6703L67.9645 50.8145C68.0824 50.8978 68.1786 51.0083 68.245 51.1365C68.3114 51.2647 68.346 51.407 68.346 51.5514C68.346 51.6958 68.3114 51.8381 68.245 51.9663C68.1786 52.0946 68.0824 52.205 67.9645 52.2884Z" fill="white"/>
</svg>
