<svg width="24" height="48" viewBox="0 0 24 48" fill="none" xmlns="http://www.w3.org/2000/svg">
<path d="M19.1303 12.7812H4.78553C3.90633 12.7812 3.19043 13.5065 3.19043 14.3972V21.414C3.19043 22.3047 3.90635 23.0299 4.78553 23.0299H19.1313C20.0105 23.0299 20.726 22.3047 20.726 21.414L20.7256 14.3976C20.7264 13.5065 20.0109 12.7812 19.1309 12.7812H19.1303ZM19.5407 21.4149C19.5407 21.6444 19.3564 21.8303 19.1311 21.8303H4.7853C4.55879 21.8303 4.37526 21.6435 4.37526 21.4149V14.3976C4.37526 14.1681 4.55961 13.9822 4.7853 13.9822H19.1311C19.3568 13.9822 19.5407 14.169 19.5407 14.3976L19.5403 21.4149H19.5407Z" fill="black"/>
<path d="M7.37403 35.7447C7.37403 36.0766 7.63899 36.3449 7.96678 36.3449H16.1594C16.4872 36.3449 16.7522 36.0766 16.7522 35.7447C16.7522 35.4128 16.4872 35.1445 16.1594 35.1445H7.96636C7.6394 35.1445 7.37402 35.4128 7.37402 35.7447H7.37403Z" fill="black"/>
<path d="M3.78223 26.5363H6.71329C7.04108 26.5363 7.30604 26.268 7.30604 25.9361C7.30604 25.6042 7.04108 25.3359 6.71329 25.3359H3.78223C3.45444 25.3359 3.18948 25.6042 3.18948 25.9361C3.1899 26.268 3.45444 26.5363 3.78223 26.5363Z" fill="black"/>
<path d="M10.3867 26.5363H13.3169C13.6447 26.5363 13.9097 26.268 13.9097 25.9361C13.9097 25.6042 13.6447 25.3359 13.3169 25.3359H10.3867C10.0589 25.3359 9.79395 25.6042 9.79395 25.9361C9.79395 26.268 10.0593 26.5363 10.3867 26.5363Z" fill="black"/>
<path d="M19.9213 25.3359H16.9902C16.6624 25.3359 16.3975 25.6042 16.3975 25.9361C16.3975 26.268 16.6624 26.5363 16.9902 26.5363H19.9213C20.2491 26.5363 20.514 26.268 20.514 25.9361C20.5136 25.6042 20.2491 25.3359 19.9213 25.3359Z" fill="black"/>
<path d="M3.78223 29.2277H6.71329C7.04108 29.2277 7.30604 28.9594 7.30604 28.6275C7.30604 28.2956 7.04108 28.0273 6.71329 28.0273H3.78223C3.45444 28.0273 3.18948 28.2956 3.18948 28.6275C3.1899 28.9598 3.45444 29.2277 3.78223 29.2277Z" fill="black"/>
<path d="M10.3867 29.2277H13.3169C13.6447 29.2277 13.9097 28.9594 13.9097 28.6275C13.9097 28.2956 13.6447 28.0273 13.3169 28.0273H10.3867C10.0589 28.0273 9.79395 28.2956 9.79395 28.6275C9.79395 28.9598 10.0593 29.2277 10.3867 29.2277Z" fill="black"/>
<path d="M19.9213 28.0273H16.9902C16.6624 28.0273 16.3975 28.2956 16.3975 28.6275C16.3975 28.9594 16.6624 29.2277 16.9902 29.2277H19.9213C20.2491 29.2277 20.514 28.9594 20.514 28.6275C20.5136 28.2956 20.2491 28.0273 19.9213 28.0273Z" fill="black"/>
<path d="M7.30599 31.315C7.30599 30.9831 7.04103 30.7148 6.71323 30.7148H3.78218C3.45438 30.7148 3.18942 30.9831 3.18942 31.315C3.18942 31.6469 3.45438 31.9152 3.78218 31.9152H6.71323C7.04144 31.9152 7.30599 31.6469 7.30599 31.315Z" fill="black"/>
<path d="M10.3867 31.9152H13.3169C13.6447 31.9152 13.9097 31.6469 13.9097 31.315C13.9097 30.9831 13.6447 30.7148 13.3169 30.7148H10.3867C10.0589 30.7148 9.79395 30.9831 9.79395 31.315C9.79395 31.6469 10.0593 31.9152 10.3867 31.9152Z" fill="black"/>
<path d="M19.9213 30.7109H16.9902C16.6624 30.7109 16.3975 30.9792 16.3975 31.3111C16.3975 31.643 16.6624 31.9113 16.9902 31.9113H19.9213C20.2491 31.9113 20.514 31.643 20.514 31.3111C20.5136 30.9792 20.2491 30.7109 19.9213 30.7109Z" fill="black"/>
<path d="M16.1589 43.2383H7.9658C7.638 43.2383 7.37305 43.5065 7.37305 43.8384C7.37305 44.1703 7.638 44.4386 7.9658 44.4386H16.1585C16.4863 44.4386 16.7512 44.1703 16.7512 43.8384C16.7512 43.5065 16.4863 43.2383 16.1589 43.2383H16.1589Z" fill="black"/>
<path d="M17.9481 38H6.17585C5.84806 38 5.5831 38.2683 5.5831 38.6002C5.5831 38.9321 5.84806 39.2003 6.17585 39.2003H17.9471C18.2749 39.2003 18.5398 38.9321 18.5398 38.6002C18.5398 38.2683 18.2753 38 17.9475 38H17.9481Z" fill="black"/>
<path d="M17.9481 40.6133H6.17585C5.84806 40.6133 5.5831 40.8816 5.5831 41.2135C5.5831 41.5453 5.84806 41.8136 6.17585 41.8136H17.9471C18.2749 41.8136 18.5398 41.5453 18.5398 41.2135C18.5398 40.8816 18.2753 40.6133 17.9475 40.6133H17.9481Z" fill="black"/>
<path d="M21.7713 9.2643H11.8133V7.33719C11.8133 6.27024 10.9564 5.40258 9.90277 5.40258C8.8491 5.40258 7.99222 6.27023 7.99222 7.33719V9.2643H6.66664V1.93461C6.66664 0.867653 5.80975 0 4.75609 0C3.70245 0 2.84639 0.867642 2.84639 1.93461V9.2643H2.228C0.999559 9.2643 0 10.2768 0 11.5209V45.7429C0 46.9874 0.999485 48 2.228 48H21.7716C23 48 23.9996 46.9875 23.9996 45.7429L24 11.5209C24 10.2769 23.0001 9.2643 21.7716 9.2643H21.7713ZM9.17686 7.33762C9.17686 6.93312 9.50216 6.60356 9.9023 6.60356C10.3024 6.60356 10.6277 6.93311 10.6277 7.33762V9.26473H9.1777V7.33762H9.17686ZM4.03144 1.93504C4.03144 1.53054 4.35675 1.20098 4.75605 1.20098C5.15617 1.20098 5.48149 1.53053 5.48149 1.93504V9.26473H4.03189L4.0323 1.93504H4.03144ZM22.8142 45.7427C22.8142 46.3256 22.3467 46.7992 21.7713 46.7992H2.22772C1.65233 46.7992 1.18483 46.3256 1.18483 45.7427V11.5207C1.18483 10.9382 1.65233 10.4646 2.22772 10.4646H21.7713C22.3467 10.4646 22.8142 10.9382 22.8142 11.5207V45.7427Z" fill="black"/>
</svg>
