<svg width="49" height="49" viewBox="0 0 49 49" fill="none" xmlns="http://www.w3.org/2000/svg">
<path d="M47.9 3.90803C47.5686 3.90803 47.2999 4.17673 47.2999 4.5082V15.8171C47.2999 17.2464 45.7325 18.4087 43.806 18.4087H42.1018V8.74324H42.53C43.6512 8.74324 44.5635 7.83086 44.5635 6.70967V2.53399C44.5635 1.41231 43.6512 0.500419 42.53 0.500419L8.23891 0.5C7.11723 0.5 6.20534 1.41239 6.20534 2.53357V6.70925C6.20534 7.83093 7.11772 8.74282 8.23891 8.74282H8.66706V20.6989H5.19413C2.60556 20.6989 0.499992 22.8569 0.499992 25.5091C0.499992 28.1613 2.60556 30.3193 5.1846 30.3193L8.66717 30.3741V39.8667H8.23902C7.11734 39.8667 6.20545 40.7791 6.20545 41.9003V46.4664C6.20545 47.5877 7.11783 48.5 8.23902 48.5H42.5301C43.6513 48.5 44.5637 47.5876 44.5637 46.4664V41.9003C44.5637 40.7786 43.6513 39.8667 42.5301 39.8667H42.1019V19.6092H43.8061C46.3943 19.6088 48.5 17.9079 48.5 15.8173V4.5084C48.5 4.17692 48.2313 3.90823 47.8998 3.90823L47.9 3.90803ZM9.86753 19.6088H40.9025V23.7179H9.86753V19.6088ZM40.9025 24.9182V29.1905H9.86753V24.9182H40.9025ZM40.9025 18.4089H9.86753V14.2997H40.9025V18.4089ZM40.9025 30.3906V34.4998H9.86753V30.3906H40.9025ZM7.40539 6.70993V2.53425C7.40539 2.0747 7.77956 1.70055 8.23909 1.70055H42.5302C42.9897 1.70055 43.3639 2.07471 43.3639 2.53425V6.70993C43.3639 7.16947 42.9901 7.54363 42.5302 7.54363H8.23909C7.77954 7.54363 7.40539 7.16988 7.40539 6.70993ZM40.9025 8.74393V13.1004H9.86753V8.74393H40.9025ZM5.19396 29.1193C3.26753 29.1193 1.70014 27.5 1.70014 25.5095C1.70014 23.519 3.26753 21.8998 5.19396 21.8998H8.66689V29.1746L5.19396 29.1193ZM43.3636 41.9004V46.4665C43.3636 46.926 42.9894 47.3002 42.5299 47.3002H8.23883C7.77929 47.3002 7.40513 46.926 7.40513 46.4665V41.9004C7.40513 41.4408 7.7793 41.0667 8.23883 41.0667H42.5299C42.9894 41.0667 43.3636 41.4408 43.3636 41.9004ZM9.86646 39.8668V35.7003H40.9015V39.8668H9.86646Z" fill="black"/>
</svg>
